<svg width="523" height="115" viewBox="0 0 523 115" fill="none" xmlns="http://www.w3.org/2000/svg">
<g clip-path="url(#clip0_75_38)">
<path d="M70.6918 1.19517L59.8488 12.0382C59.1907 12.6963 59.1907 13.7632 59.8488 14.4213L71.8417 26.4141C72.4997 27.0722 73.5667 27.0722 74.2248 26.4141L85.0678 15.5711C85.7259 14.913 85.7259 13.8461 85.0678 13.188L73.0749 1.19516C72.4168 0.537095 71.3499 0.537096 70.6918 1.19517Z" fill="#64801E"/>
<path d="M40.7806 31.0925L1.19154 70.6814C0.533472 71.3395 0.533472 72.4065 1.19154 73.0645L13.1844 85.0574C13.8425 85.7155 14.9095 85.7155 15.5675 85.0574L55.1566 45.4684C55.8147 44.8104 55.8147 43.7434 55.1566 43.0853L43.1637 31.0925C42.5056 30.4344 41.4387 30.4344 40.7806 31.0925Z" fill="#64801E"/>
<path d="M40.788 88.5895L29.945 99.4325C29.2869 100.091 29.2869 101.158 29.945 101.816L41.9379 113.808C42.5959 114.467 43.6629 114.467 44.3209 113.808L55.164 102.965C55.8221 102.307 55.8221 101.24 55.164 100.582L43.1711 88.5895C42.513 87.9314 41.4461 87.9314 40.788 88.5895Z" fill="#64801E"/>
<path d="M99.4286 29.9438L59.8395 69.5327C59.1814 70.1908 59.1814 71.2577 59.8395 71.9158L71.8324 83.9087C72.4905 84.5668 73.5574 84.5668 74.2155 83.9087L113.805 44.3197C114.463 43.6616 114.463 42.5947 113.805 41.9366L101.812 29.9438C101.154 29.2857 100.087 29.2857 99.4286 29.9438Z" fill="#64801E"/>
<path d="M100.583 59.8408L88.59 71.8337C87.9319 72.4918 87.9319 73.5587 88.59 74.2168L99.433 85.0598C100.091 85.7179 101.158 85.7179 101.816 85.0598L113.809 73.067C114.467 72.4089 114.467 71.3419 113.809 70.6839L102.966 59.8408C102.308 59.1828 101.241 59.1828 100.583 59.8408Z" fill="#64801E"/>
<path d="M41.9408 1.19154L29.9479 13.1844C29.2898 13.8425 29.2898 14.9094 29.9479 15.5675L69.5369 55.1565C70.195 55.8145 71.262 55.8145 71.92 55.1565L83.9129 43.1636C84.571 42.5055 84.571 41.4386 83.9129 40.7805L44.3239 1.19154C43.6658 0.533467 42.5989 0.533468 41.9408 1.19154Z" fill="#64801E"/>
<path d="M13.1879 29.9354L1.19496 41.9283C0.53689 42.5863 0.53689 43.6533 1.19496 44.3113L12.038 55.1544C12.6961 55.8124 13.763 55.8124 14.4211 55.1544L26.414 43.1615C27.0721 42.5034 27.0721 41.4365 26.414 40.7784L15.5709 29.9354C14.9129 29.2773 13.8459 29.2773 13.1879 29.9354Z" fill="#64801E"/>
<path d="M43.0882 59.8413L31.0954 71.8341C30.4373 72.4922 30.4373 73.5591 31.0954 74.2172L70.6844 113.806C71.3425 114.464 72.4094 114.464 73.0675 113.806L85.0604 101.813C85.7185 101.155 85.7185 100.088 85.0604 99.4302L45.4713 59.8413C44.8133 59.1832 43.7463 59.1832 43.0882 59.8413Z" fill="#64801E"/>
<path d="M161.778 89.7948H136.316C135.81 89.7948 135.313 89.4157 135.187 88.9186L121.765 26.3257C121.639 25.5759 122.018 25.1967 122.641 25.1967H145.719C146.342 25.1967 146.721 25.5759 146.848 26.1993L150.74 61.4515L157.767 26.0814C157.893 25.5759 158.273 25.2051 158.77 25.2051H184.232C184.737 25.2051 185.108 25.5843 185.234 26.0814L191.503 60.7017L196.145 26.0814C196.272 25.4579 196.524 25.2051 197.148 25.2051H218.22C218.843 25.2051 219.223 25.7022 219.096 26.3342L205.051 88.927C204.925 89.4325 204.427 89.8032 203.922 89.8032H178.46C177.955 89.8032 177.457 89.4241 177.331 88.927L169.554 53.3041L162.78 88.927C162.654 89.4325 162.275 89.8032 161.778 89.8032V89.7948Z" fill="#2B3D00"/>
<path d="M216.846 57.6854C216.846 36.866 230.142 23.3179 252.596 23.3179C275.049 23.3179 288.092 36.3605 288.092 57.1883C288.092 78.016 275.176 91.6821 252.596 91.6821C230.015 91.6821 216.846 78.5131 216.846 57.6854ZM261.249 57.6854C261.249 44.8871 258.367 40.4974 252.469 40.4974C246.201 40.7502 243.563 45.1398 243.563 57.9297C243.563 70.7196 246.571 74.3594 252.596 74.3594C258.62 74.3594 261.249 70.8459 261.249 57.6769V57.6854Z" fill="#2B3D00"/>
<path d="M325.855 89.7948H300.393C299.888 89.7948 299.391 89.4157 299.264 88.9186L285.843 26.3257C285.716 25.5759 286.095 25.1967 286.719 25.1967H309.796C310.42 25.1967 310.799 25.5759 310.925 26.1993L314.818 61.4515L321.845 26.0814C321.971 25.5759 322.35 25.2051 322.847 25.2051H348.309C348.815 25.2051 349.185 25.5843 349.312 26.0814L355.58 60.7017L360.223 26.0814C360.349 25.4579 360.602 25.2051 361.225 25.2051H382.298C382.921 25.2051 383.3 25.7022 383.174 26.3342L369.129 88.927C369.002 89.4325 368.505 89.8032 368 89.8032H342.538C342.032 89.8032 341.535 89.4241 341.409 88.927L333.632 53.3041L326.858 88.927C326.731 89.4325 326.352 89.8032 325.855 89.8032V89.7948Z" fill="#2B3D00"/>
<path d="M424.323 68.8491C424.449 68.2256 424.946 67.9729 425.452 67.9729H448.529C449.153 67.9729 449.658 68.352 449.405 69.1019C447.274 79.7685 436.236 91.6821 416.411 91.6821C394.833 91.6821 380.915 78.134 380.915 57.6854C380.915 37.2367 395.213 23.3179 415.282 23.3179C437.989 23.3179 450.282 36.1162 450.652 62.075C450.652 62.6985 450.273 63.0777 449.65 63.0777H407C407.876 72.4889 411.263 74.4942 416.158 74.4942C420.169 74.4942 422.932 72.7417 424.314 68.8491H424.323ZM407.387 49.0324H423.944C423.944 43.5137 421.062 39.7475 416.167 39.7475C412.03 39.7475 408.769 41.5 407.387 49.0324Z" fill="#2B3D00"/>
<path d="M522.792 88.7922C522.792 89.5421 522.413 89.7948 521.79 89.7948H496.952C496.328 89.7948 495.949 89.5421 495.949 88.7922L496.328 62.4542V50.5406C496.328 45.0219 493.944 42.6375 490.304 42.6375C483.782 42.6375 480.143 50.4142 480.016 62.7069L480.395 88.8006C480.395 89.5505 480.016 89.8033 479.393 89.8033H454.681C454.057 89.8033 453.678 89.5505 453.678 88.8006L453.931 57.1882L454.057 26.2078C454.057 25.4579 454.437 25.2052 455.06 25.2052H478.264C478.887 25.2052 479.266 25.4579 479.266 26.2078L478.887 32.7291C483.277 25.955 491.18 23.697 498.957 23.697C514.257 23.697 522.413 33.7317 522.413 47.5327V62.4626L522.792 88.8006V88.7922Z" fill="#2B3D00"/>
</g>
<defs>
<clipPath id="clip0_75_38">
<rect width="522.792" height="115" fill="white"/>
</clipPath>
</defs>
</svg>
